<svg width="64" height="57" viewBox="0 0 64 57" fill="none" xmlns="http://www.w3.org/2000/svg">
<path d="M14.4768 4.69652C21.5697 10.0214 29.1989 20.8181 32 26.6123C34.8013 20.8186 42.4301 10.0213 49.5232 4.69652C54.641 0.854282 62.9333 -2.11862 62.9333 7.34132C62.9333 9.2306 61.8501 23.2123 61.2148 25.4821C59.0065 33.3738 50.9594 35.3866 43.8015 34.1683C56.3135 36.2978 59.4964 43.3515 52.6225 50.4051C39.5676 63.8014 33.8588 47.0439 32.3953 42.7501C32.1271 41.9629 32.0016 41.5947 31.9998 41.9078C31.9979 41.5946 31.8725 41.9629 31.6043 42.7501C30.1415 47.0439 24.4328 63.8018 11.3771 50.4051C4.50308 43.3515 7.68591 36.2974 20.1981 34.1683C13.0399 35.3866 4.99279 33.3737 2.78479 25.4821C2.14946 23.212 1.06628 9.23039 1.06628 7.34132C1.06628 -2.11862 9.35876 0.854282 14.4764 4.69652H14.4768Z" fill="#1185FE"/>
</svg>
